<svg id="Layer_1" data-name="Layer 1" xmlns="http://www.w3.org/2000/svg" viewBox="0 0 512 512"><defs><style>.cls-1{fill:#f1f1f1;}.cls-2{fill:#e1e1e4;}.cls-3{fill:#e53e3e;}.cls-4{fill:#bd1919;}.cls-5{fill:#990013;}</style></defs><title>chip_red</title><path class="cls-1" d="M428.15,66.53l-1.43-1.3-.86-.77q-2.87-2.55-5.8-5-3.37-2.82-6.83-5.53c-.82-.64-1.66-1.29-2.5-1.92s-1.67-1.27-2.51-1.89c-1.76-1.3-3.53-2.6-5.32-3.85-.78-.55-1.57-1.1-2.35-1.63L398,42.87c-.87-.58-1.74-1.16-2.61-1.72-1.64-1.07-3.28-2.12-4.93-3.13l-2.84-1.74Q378,30.52,368,25.65c-.94-.46-1.89-.91-2.85-1.36-2.72-1.29-5.48-2.54-8.26-3.72-.94-.41-1.9-.81-2.86-1.21l-2.49-1c-.92-.37-1.86-.74-2.79-1.09s-1.66-.65-2.5-1l-2-.74c-.24-.1-.49-.18-.73-.27l-2.14-.76c-1.63-.59-3.27-1.14-4.91-1.68l-2.91-.94q-3.33-1.07-6.71-2c-.59-.18-1.17-.35-1.76-.51s-1-.26-1.44-.39h0c-.69-.2-1.36-.39-2.05-.57-1.05-.27-2.08-.54-3.11-.79q-5.46-1.36-11-2.49c-1.9-.38-3.78-.75-5.69-1.09-1.26-.23-2.52-.45-3.79-.65-1.05-.18-2.11-.35-3.17-.5-.46-.08-.92-.14-1.38-.21-1.71-.25-3.43-.48-5.14-.69q-3.12-.39-6.29-.71l-1.61-.15c-4.85-.46-9.7-.78-14.6-1L263.72.11h-.12L260.66.05c-1.55,0-3.1,0-4.66,0-1.12,0-2.23,0-3.34,0l-2,0c-1,0-2,0-3,.07-1.21,0-2.42.09-3.62.15s-2.65.13-4,.21-2.82.17-4.23.29c-.92.06-1.84.15-2.76.23l-3.25.3c-1.08.11-2.15.22-3.23.35L224,2c-.93.12-1.86.23-2.79.37l-1.79.25c-.72.1-1.44.19-2.16.31l-1.07.16L214,3.41c-1.16.18-2.31.38-3.47.59-2.12.37-4.23.78-6.34,1.21-1.21.25-2.41.5-3.61.77s-2.18.48-3.26.74c-.28,0-.58.12-.86.19l-2.64.65-1,.26c-1.08.27-2.14.54-3.21.83s-2.36.64-3.55,1c-.55.15-1.08.3-1.63.47q-4.6,1.32-9.17,2.85c-.73.23-1.45.47-2.17.72l-2.16.75-2.15.76-2.14.79q-5.81,2.16-11.5,4.6c-1,.4-1.91.82-2.86,1.24l-2.84,1.28-2.15,1c-1.28.59-2.54,1.2-3.79,1.82L141,27.14q-7.92,4-15.56,8.53l-2,1.22c-.76.47-1.52.92-2.28,1.41l-1.92,1.19c-.85.54-1.7,1.1-2.56,1.66l-1.77,1.16-1.34.9q-6.85,4.59-13.43,9.67l-1.78,1.38q-2.84,2.22-5.59,4.52s0,0,0,0c-.65.52-1.29,1.07-1.93,1.62-1.65,1.38-3.29,2.81-4.89,4.25-.39.34-.78.68-1.16,1l-1.13,1-.41.38c-.88.79-1.74,1.6-2.61,2.41-.12.1-.24.22-.36.34-.87.82-1.74,1.65-2.61,2.5S75.86,74.1,75,75q-5.33,5.33-10.3,10.92a254,254,0,0,0-52.14,90.56c-.3.94-.6,1.88-.89,2.82-.89,2.81-1.73,5.66-2.51,8.52Q6.74,196.55,5,205.48c-.58,2.91-1.1,5.82-1.58,8.75a260.14,260.14,0,0,0,.29,85.22c.52,3.11,1.11,6.21,1.74,9.29A253.78,253.78,0,0,0,65.33,426.83Q70,432,75,437q5.68,5.67,11.64,11c2,1.81,4.1,3.57,6.2,5.31a254.08,254.08,0,0,0,74,42.83q4.63,1.71,9.35,3.25a255.54,255.54,0,0,0,29,7.63,260.11,260.11,0,0,0,103.24-.33,251.08,251.08,0,0,0,29-7.81c2.67-.89,5.33-1.82,8-2.81a253.93,253.93,0,0,0,74.26-43.13q3.54-2.93,7-6,5.34-4.75,10.44-9.87,1.69-1.68,3.33-3.39c.57-.6,1.15-1.2,1.71-1.8l.17-.17c.21-.23.43-.45.63-.68a.63.63,0,0,0,.11-.12c.73-.77,1.45-1.55,2.16-2.33s1.55-1.71,2.31-2.56l.31-.34c.77-.87,1.54-1.74,2.29-2.62q2.07-2.4,4.09-4.85c.7-.85,1.4-1.72,2.09-2.59s1.36-1.71,2-2.57,1.17-1.51,1.75-2.27c.4-.52.79-1,1.18-1.56.28-.36.55-.73.81-1.1.6-.79,1.19-1.59,1.76-2.39.44-.6.88-1.2,1.3-1.81l1-1.38.18-.25c.33-.47.66-.94,1-1.42a4.93,4.93,0,0,0,.36-.53c.32-.46.64-.92.95-1.4a1.57,1.57,0,0,0,.2-.3c.26-.37.51-.74.75-1.1.48-.73.95-1.43,1.41-2.15,1.49-2.27,2.92-4.55,4.32-6.86.49-.79.95-1.58,1.42-2.37.28-.47.56-.94.83-1.42s.72-1.24,1.09-1.87c0,0,0,0,0,0,.44-.76.87-1.52,1.29-2.29s.76-1.35,1.12-2c.71-1.3,1.42-2.62,2.1-3.93q.69-1.3,1.35-2.61c.49-1,1-1.92,1.44-2.89l.72-1.45c.24-.48.47-1,.7-1.46.46-1,.92-1.95,1.37-2.93s.9-1.94,1.33-2.93.87-2,1.3-3,.85-2,1.26-3,.82-2,1.22-3a.84.84,0,0,0,.08-.19c.49-1.22,1-2.44,1.43-3.67a.43.43,0,0,0,.05-.12c.46-1.22.91-2.44,1.36-3.66q1.35-3.75,2.6-7.54c.39-1.18.77-2.37,1.15-3.56.29-.93.57-1.86.85-2.79.83-2.73,1.59-5.47,2.32-8.22.3-1.15.59-2.29.87-3.43.66-2.61,1.26-5.23,1.83-7.86.22-1.05.43-2.1.65-3.14.56-2.78,1.08-5.57,1.54-8.38.3-1.75.56-3.5.83-5.26s.5-3.52.71-5.29l.25-2.12c.13-1.06.25-2.13.36-3.19.1-.89.18-1.79.26-2.67.1-1.05.19-2.09.28-3.13Q512,266.64,512,256c0-1.65,0-3.31-.05-5,0-1,0-2-.08-3-.05-1.91-.13-3.81-.22-5.71s-.21-3.61-.34-5.42c0-.18,0-.37,0-.55q-.12-1.62-.27-3.24c-.14-1.64-.3-3.28-.48-4.91-.08-.69-.15-1.37-.23-2.06-.11-1-.23-1.94-.35-2.91s-.25-1.95-.39-2.92q-.33-2.43-.72-4.83c-.13-.83-.26-1.65-.4-2.47a.62.62,0,0,0,0-.18q-.45-2.69-1-5.36c-.21-1.16-.45-2.32-.69-3.46a1,1,0,0,0,0-.16,1.09,1.09,0,0,0-.05-.17c-.14-.72-.28-1.42-.44-2.14-.06-.25-.11-.52-.17-.78-.32-1.43-.64-2.88-1-4.32-.29-1.21-.59-2.41-.89-3.62-.12-.47-.25-1-.38-1.43-.18-.72-.37-1.44-.56-2.16q-1.45-5.46-3.16-10.83c-.37-1.18-.76-2.35-1.15-3.52-.6-1.82-1.22-3.62-1.87-5.42-.53-1.47-1.06-2.93-1.61-4.38-.3-.8-.6-1.57-.91-2.35-.36-.94-.74-1.88-1.11-2.8-1.66-4.15-3.46-8.25-5.36-12.3-.31-.7-.65-1.4-1-2.09-1.25-2.64-2.56-5.26-3.92-7.84-.45-.87-.9-1.73-1.36-2.58l-1.31-2.43c-.6-1.09-1.22-2.19-1.84-3.28l-.28-.48c-.51-.89-1-1.76-1.54-2.64-.13-.23-.25-.45-.39-.66-.42-.72-.85-1.44-1.28-2.15-.29-.46-.58-.94-.86-1.4-2.59-4.2-5.3-8.35-8.15-12.4l-1.31-1.86-1.11-1.55c-.61-.85-1.23-1.7-1.86-2.54s-1.25-1.67-1.89-2.51c-.92-1.22-1.86-2.42-2.81-3.62l-1.58-2c-.68-.85-1.37-1.7-2.07-2.54-.35-.43-.7-.85-1.06-1.26s-.7-.84-1.06-1.26c-.63-.75-1.26-1.48-1.9-2.22-.27-.32-.55-.65-.83-1l-1.59-1.79c-.82-.91-1.64-1.81-2.47-2.71-1.64-1.81-3.32-3.58-5-5.33-.86-.89-1.71-1.76-2.58-2.63l-.19-.19Q432.57,70.54,428.15,66.53Z" transform="translate(0 0)"/><path class="cls-2" d="M512,256c0,1.23,0,2.45,0,3.68q0,3.68-.21,7.33-.08,1.83-.18,3.66c0,.8-.09,1.59-.14,2.39,0,.42-.05.85-.09,1.27-.07,1-.14,1.94-.22,2.91-.05.55-.09,1.1-.14,1.64s-.09,1.09-.15,1.64c-.1,1.09-.21,2.18-.33,3.26-.09.84-.18,1.68-.28,2.51-.17,1.52-.36,3-.57,4.55-.14,1-.28,2.08-.44,3.11s-.31,2.08-.48,3.11c-.1.63-.2,1.25-.31,1.88s-.26,1.5-.39,2.24c-.85,4.88-1.86,9.73-3,14.53l-.39,1.6c-.19.81-.4,1.62-.61,2.42-.05.25-.12.5-.19.75-.25,1-.51,2-.78,2.95,0,.18-.09.36-.14.54-.33,1.21-.67,2.42-1,3.62-.26.88-.52,1.76-.79,2.64s-.56,1.86-.86,2.79c-.87,2.79-1.79,5.57-2.77,8.32-.25.73-.51,1.46-.78,2.18-1.52,4.2-3.15,8.37-4.91,12.48-.38.93-.78,1.85-1.19,2.77s-.67,1.53-1,2.3c-.64,1.42-1.3,2.83-2,4.24-.81,1.73-1.65,3.44-2.51,5.15-.55,1.11-1.11,2.21-1.68,3.31q-2.6,5-5.42,9.89c-.62,1.07-1.25,2.14-1.88,3.2s-1.28,2.13-1.93,3.19q-1.17,1.89-2.36,3.75c-.14.23-.29.45-.43.67-.39.62-.79,1.22-1.2,1.83a1.19,1.19,0,0,1-.09.15l-.09.13c-.64,1-1.29,2-2,2.93-1,1.5-2.06,3-3.11,4.47a1,1,0,0,1-.11.15c-.48.68-1,1.35-1.46,2q-1.42,2-2.91,3.92c-.59.79-1.19,1.57-1.79,2.34s-1.2,1.54-1.81,2.31l-1.29,1.62q-1.55,1.92-3.14,3.81c-.69.83-1.39,1.66-2.1,2.48l-.36.42c-1.18,1.37-2.38,2.72-3.59,4.07s-2.56,2.81-3.88,4.2c-.67.72-1.35,1.44-2,2.15l-.33.34c-1,1.08-2.08,2.14-3.14,3.2q-7.51,7.51-15.53,14.32l-2.41,2c-.68.57-1.37,1.14-2.07,1.7s-1.67,1.35-2.51,2l-1.68,1.32c-1.4,1.1-2.81,2.17-4.24,3.23s-2.86,2.11-4.31,3.14q-3.47,2.49-7,4.83c-.89.59-1.78,1.18-2.68,1.76-2.26,1.46-4.54,2.89-6.85,4.27l-3,1.81c-2.46,1.43-4.94,2.83-7.46,4.17L374.66,483l-3.33,1.71q-3.56,1.81-7.17,3.49l-3.55,1.63-.12.05c-1.2.54-2.4,1.06-3.6,1.58l-.2.08-3,1.25-3,1.21-3,1.18c-1,.39-2,.76-3,1.13s-2,.74-3,1.1l-1.53.54-1.53.52q-1.53.53-3.06,1c-.93.31-1.86.61-2.8.9-1.41.44-2.84.87-4.26,1.29l-2.23.64c-.84.25-1.69.48-2.53.71h0l-2.09.56L320,504c-.89.23-1.78.46-2.68.67q-3.93,1-7.9,1.8l-2.52.52-1.31.25a1.53,1.53,0,0,1-.36.07c-.55.12-1.1.22-1.66.32l-.63.12-1.7.31-.3,0-1.66.29c-.73.13-1.46.25-2.2.36-1,.16-1.95.31-2.93.45l-1.35.2c-.65.1-1.29.19-1.94.27-.95.13-1.89.26-2.84.37l-3.26.38c-1.1.13-2.21.24-3.31.35q-3.15.3-6.32.54c-1.15.09-2.31.16-3.47.23l-.46,0c-1.14.07-2.29.13-3.44.18l-3.18.12h-.16l-.93,0h-.24c-.82,0-1.65.05-2.48.06-1.58,0-3.16.05-4.75.05V0c1.24,0,2.48,0,3.71,0,2.75,0,5.48.12,8.21.25l1.54.07c.51,0,1,.05,1.54.09q3.24.17,6.47.45c.84.06,1.68.13,2.51.22,0,0,0,0,0,0q3.59.33,7.15.76l2.24.28q8.23,1.07,16.33,2.66l1.58.31,2.08.43,3,.64c.74.17,1.47.33,2.2.51l2.61.62,2.3.57q8.61,2.19,17,5l2.61.88c1.33.45,2.65.91,4,1.39l2.23.82,2.91,1.1c1,.37,1.94.75,2.9,1.14q5.75,2.29,11.39,4.88,1,.46,2.07,1l2.06,1,2,1c.69.33,1.37.67,2.05,1q4.31,2.14,8.5,4.47l1.48.82c1.08.6,2.14,1.2,3.2,1.82s1.91,1.11,2.86,1.68,2.17,1.3,3.25,2l.75.47c.94.58,1.88,1.18,2.82,1.78s2.07,1.33,3.1,2c1.8,1.19,3.58,2.39,5.34,3.63,1,.67,1.92,1.34,2.87,2L406.67,49l.87.64c.59.43,1.17.87,1.75,1.31L410.73,52c.75.56,1.49,1.14,2.23,1.71l2.09,1.65c.85.67,1.69,1.35,2.53,2s1.68,1.38,2.51,2.08,1.42,1.18,2.11,1.79c1.08.91,2.14,1.84,3.2,2.78s2,1.76,3,2.66,1.78,1.63,2.66,2.46,1.47,1.38,2.19,2.08c.48.46,1,.92,1.43,1.39.8.77,1.59,1.55,2.38,2.34q1.65,1.65,3.26,3.33c.69.7,1.36,1.41,2,2.12l.09.09L443.82,82q5,5.38,9.64,11l1,1.25q2,2.46,3.95,4.95,1.59,2,3.14,4.12c.28.37.56.74.83,1.12.64.86,1.27,1.73,1.89,2.6.75,1,1.49,2.08,2.22,3.14s1.62,2.35,2.41,3.54l.84,1.25q3.12,4.71,6,9.54c.55.91,1.09,1.83,1.64,2.76s1.21,2.09,1.8,3.15c.31.53.6,1.06.89,1.6q1.71,3.06,3.32,6.17c.47.91.94,1.81,1.39,2.72.78,1.54,1.55,3.09,2.29,4.66.33.68.65,1.37,1,2,.11.24.23.47.33.71.3.65.6,1.29.89,1.94.37.81.73,1.62,1.09,2.44s.81,1.83,1.2,2.75.7,1.65,1,2.48.79,1.92,1.17,2.88c1.13,2.8,2.2,5.63,3.21,8.47.36,1,.71,2,1.05,3q3.63,10.51,6.33,21.35l.78,3.24q.68,2.83,1.27,5.7c.22,1,.43,2,.63,3.07s.4,2.05.59,3.08.35,1.87.51,2.81c.38,2.15.72,4.32,1,6.49.16,1,.3,2.07.44,3.11s.28,2.09.41,3.13q.53,4.35.92,8.73.33,3.82.56,7.65c0,.39.05.77.06,1.15,0,.64.07,1.29.1,1.93Q512,249.86,512,256Z" transform="translate(0 0)"/><path class="cls-3" d="M427.91,405.89l-56-54.86Q367.23,356.69,362,362A150,150,0,0,1,150,362C91.61,303.53,91.61,208.47,150,150A150,150,0,0,1,362,150q5.27,5.27,9.9,10.92L447.1,85.65l-1.23-1.36c-.2-.23-.4-.45-.62-.68l-.62-.67c-.74-.81-1.48-1.62-2.23-2.42l-.09-.09c-.67-.71-1.34-1.42-2-2.12Q438.67,76.63,437,75c-.79-.79-1.58-1.57-2.38-2.34-.47-.47-.95-.93-1.43-1.39-.72-.7-1.45-1.39-2.19-2.08s-1.77-1.65-2.66-2.46-2-1.78-3-2.66-2.12-1.87-3.2-2.78c-.69-.61-1.4-1.2-2.11-1.79l0,0c-.78-.66-1.58-1.31-2.37-2l-.11-.09c-.84-.69-1.68-1.37-2.53-2L413,53.71c-.74-.57-1.48-1.15-2.23-1.71l-1.44-1.09-1.07-.8c-.65-.48-1.3-1-2-1.44l-1.33-1c-.95-.69-1.9-1.36-2.87-2l-.34-.24-1.17-.81-1.15-.78c-.48-.33-1-.66-1.45-1l-1.23-.82c-1-.68-2.06-1.35-3.1-2s-1.88-1.2-2.82-1.78l-.75-.47c-1.08-.67-2.16-1.32-3.25-2s-1.9-1.13-2.86-1.68c-.69-.41-1.39-.8-2.09-1.2l-1.11-.62-1.48-.82-2.11-1.15c-1.4-.76-2.82-1.51-4.24-2.24L370.76,27c-.68-.35-1.36-.69-2.05-1l-.72-.36L366.66,25l-2.06-1q-1-.5-2.07-1l-.14-.06c-.89-.41-1.79-.82-2.69-1.21s-2-.88-3-1.31L354,19.36h0l-1.24-.51c-.54-.23-1.08-.44-1.63-.66-1-.39-1.93-.77-2.9-1.14L345.33,16l-2.23-.82-.66-.23-1.07-.38-1.85-.65-.39-.13-2.61-.88-.36-.12-2.61-.84-.26-.08-2.05-.64-2.05-.62-2.35-.68c-1-.3-2-.58-3.06-.86l-2.2-.59L320.08,8H320l-.53-.14-1-.25-1.28-.32L316,7l-1.45-.34L313,6.33l-2.76-.6-2.76-.58-19.73,73.9a181.16,181.16,0,0,0-63.68,0L204.22,5.21c-1.21.25-2.41.5-3.61.77s-2.18.48-3.26.74c-.28,0-.58.12-.86.19-1.24.29-2.46.6-3.69.91s-2.14.54-3.21.83-2.36.64-3.55,1c-.55.15-1.08.3-1.63.47q-4.6,1.32-9.17,2.85c-.73.23-1.45.47-2.17.72l-2.16.75-2.15.76-2.14.79q-5.81,2.16-11.5,4.6c-1,.4-1.91.82-2.86,1.24l-2.84,1.28-2.15,1c-1.27.59-2.53,1.2-3.79,1.82L141,27.14q-7.92,4-15.56,8.53l-2,1.22-2.28,1.41c-.64.38-1.27.79-1.92,1.19l-2.56,1.66-1.77,1.16-1.34.9q-6.85,4.59-13.42,9.67c-.6.45-1.19.92-1.79,1.38q-2.82,2.22-5.59,4.52s0,0,0,0c-.65.52-1.29,1.07-1.93,1.62-1.65,1.38-3.29,2.81-4.89,4.26-.39.33-.78.67-1.15,1s-.76.69-1.14,1q-1.69,1.55-3.38,3.13l-1.3,1.24-1.3,1.26c-.89.85-1.77,1.72-2.65,2.6Q69.66,80.31,64.69,85.9l54,54a178.54,178.54,0,0,0-32.17,56l-74-19.46c-.3.95-.6,1.88-.89,2.82-.88,2.82-1.69,5.67-2.49,8.53h0Q6.74,196.55,5,205.48c-.57,2.91-1.1,5.82-1.58,8.75a260.49,260.49,0,0,0,.28,85.22c.53,3.11,1.11,6.2,1.75,9.29a253.18,253.18,0,0,0,7.85,28.94l73.8-20.1a178.34,178.34,0,0,0,32.05,55.06L65.33,426.83Q70,432,75,437q5.67,5.67,11.64,11c2,1.81,4.1,3.57,6.2,5.31a254.31,254.31,0,0,0,74,42.83q4.63,1.71,9.34,3.25a255.71,255.71,0,0,0,29,7.63l19.55-74a181.22,181.22,0,0,0,63.68-.2l20,73.82h0l.69-.15.3-.06c1-.21,2-.43,3.05-.66l2-.46,2.84-.68c.9-.21,1.79-.44,2.68-.67l1.59-.41,2.09-.56h0l2.12-.59.41-.12,1.44-.41.79-.23,2.43-.73,1.83-.56.79-.25,2-.65.53-.17,2.42-.81.11,0,1.53-.52.48-.17c.35-.11.7-.24,1-.37,1-.36,2-.72,3-1.1l.33-.12,1.18-.44,1.51-.57.16-.06c2-.75,3.9-1.52,5.84-2.33l3-1.25.2-.08c1.2-.52,2.4-1,3.6-1.58l.12-.05.51-.23,3-1.4c1.13-.53,2.26-1.06,3.39-1.61l.52-.26c1.09-.53,2.18-1.07,3.26-1.62l3.33-1.71.08,0c.83-.44,1.67-.88,2.49-1.33.63-.34,1.26-.67,1.88-1,.27-.14.53-.29.79-.44l1.92-1.07c.79-.44,1.56-.89,2.34-1.34l1.69-1c.63-.37,1.26-.74,1.88-1.12l2.08-1.27c1.19-.72,2.38-1.47,3.56-2.23l1.21-.77.61-.4,2.07-1.36q2-1.29,3.89-2.64c1.05-.71,2.09-1.45,3.12-2.19,1.45-1,2.88-2.08,4.31-3.14s2.84-2.13,4.24-3.23l1.68-1.32c.84-.66,1.68-1.33,2.51-2s1.39-1.13,2.07-1.7l2.41-2q2.56-2.18,5.09-4.45l2.45-2.21c1.48-1.36,2.94-2.73,4.39-4.13.54-.52,1.07-1,1.6-1.56l2-2c1.06-1.06,2.11-2.12,3.14-3.2l.33-.34c.58-.6,1.16-1.21,1.73-1.82.22-.23.44-.45.64-.68.79-.84,1.57-1.68,2.33-2.52l1.13-1.24,1.11-1.25.27-.29s0,0,.05-.05Zm75.16-82.46c.17-.62.34-1.23.5-1.85.09-.34.18-.68.26-1C503.58,321.53,503.33,322.48,503.07,323.43Zm2-126.94-.27-1.1.36,1.51Zm1.15,5.1c-.06-.26-.11-.52-.17-.78l-.18-.8c.17.76.33,1.52.49,2.28C506.34,202.06,506.29,201.82,506.24,201.59Zm-.37,110.51c.14-.61.27-1.21.4-1.82l.21-1C506.28,310.21,506.08,311.16,505.87,312.1Zm.86-108.2a1.13,1.13,0,0,1,0-.15,2.84,2.84,0,0,1,.06.31A1,1,0,0,0,506.73,203.9Zm3.78,79.88c0-.29.07-.58.1-.87.09-.81.16-1.6.23-2.39C510.74,281.61,510.63,282.7,510.51,283.78Zm.62-6.54c-.05.55-.09,1.1-.14,1.64.06-.59.11-1.18.16-1.77,0-.43.07-.85.09-1.27C511.2,276.31,511.17,276.77,511.13,277.24Zm.14-40.84c-.06-.87-.14-1.75-.22-2.62.09,1,.17,2,.25,3.06Zm.38,6c0-.18,0-.37,0-.55,0,.64.07,1.29.1,1.93Z" transform="translate(0 0)"/><path class="cls-2" d="M362,362a148.94,148.94,0,0,1-106,43.88V106.15A149.86,149.86,0,0,1,362,362Z" transform="translate(0 0)"/><path class="cls-4" d="M362,150a149.37,149.37,0,0,0-106-43.82v-30a180.72,180.72,0,0,1,31.73,2.8l19.73-73.9,1.94.4.82.18,2.16.46.6.14,1.6.37L316,7l1.16.28,1.28.32,1,.25L320,8h.06l3.7,1c1,.28,2,.56,3.06.86l2.35.68,2.05.62,2.05.64.26.08,2.61.84.36.12,2.61.88.39.13,1.85.65,1.07.38.66.23,2.23.82,2.91,1.1c1,.37,1.94.75,2.9,1.14.55.22,1.09.43,1.63.66l1.24.51h0l2.67,1.13c1,.43,2,.86,3,1.31s1.8.8,2.69,1.21l.14.06q1,.46,2.07,1l2.06,1,2,1c.69.33,1.37.67,2.05,1l2.15,1.08c1.42.73,2.84,1.48,4.24,2.24l2.11,1.15,1.48.82,1.11.62c.7.4,1.4.79,2.09,1.2,1,.55,1.91,1.11,2.86,1.68s2.17,1.3,3.25,2l.75.47c.94.58,1.88,1.18,2.82,1.78s2.07,1.33,3.1,2l1.23.82c.49.32,1,.65,1.45,1l1.15.78,1.17.81.34.24c1,.67,1.92,1.34,2.87,2l1.33,1,.41.29.87.64.68.51,1.07.8L410.73,52c.75.56,1.49,1.14,2.23,1.71l2.09,1.65c.85.67,1.69,1.35,2.53,2l.11.09c.79.65,1.59,1.3,2.37,2l0,0c.71.59,1.42,1.18,2.11,1.79,1.08.91,2.14,1.84,3.2,2.78s2,1.76,3,2.66,1.78,1.63,2.66,2.46,1.47,1.38,2.19,2.08c.48.46,1,.92,1.43,1.39.8.77,1.59,1.55,2.38,2.34q1.65,1.65,3.26,3.33c.69.7,1.36,1.41,2,2.12l.09.09L443.82,82l1.43,1.57c.22.23.42.45.62.68l1.23,1.36L371.86,161Q367.23,155.32,362,150Z" transform="translate(0 0)"/><path class="cls-4" d="M427.91,405.89l19.84,19.74s0,0-.05.05l-1.29,1.45-.09.09-1.13,1.24c-.76.84-1.54,1.68-2.33,2.52l-.33.35-.31.33c-.57.61-1.15,1.22-1.73,1.82l-.33.34c-1,1.08-2.08,2.14-3.14,3.2l-2,2c-.53.53-1.06,1-1.6,1.56-1.45,1.4-2.91,2.77-4.39,4.13l-2.45,2.21q-2.52,2.28-5.09,4.45l-2.41,2c-.68.57-1.37,1.14-2.07,1.7s-1.67,1.35-2.51,2l-1.68,1.32c-1.4,1.1-2.81,2.17-4.24,3.23s-2.86,2.11-4.31,3.14c-1,.74-2.07,1.48-3.12,2.19q-1.93,1.35-3.89,2.64L395.19,471l-.61.4-1.21.77c-1.18.76-2.37,1.51-3.56,2.23l-2.08,1.27c-.62.38-1.25.75-1.88,1.12l-1.16.69-.53.3c-.78.45-1.55.9-2.34,1.34l-1.92,1.07c-.26.15-.52.3-.79.44-.62.35-1.25.68-1.88,1-.82.45-1.66.89-2.49,1.33l-.08,0-3.33,1.71c-1.08.55-2.17,1.09-3.26,1.62l-.52.26c-1.13.55-2.26,1.08-3.39,1.61l-3,1.4-.51.23-.12.05c-1.2.54-2.4,1.06-3.6,1.58l-.2.08-3,1.25-3,1.21-2.85,1.12-.16.06-1.51.57-1.18.44-.33.12c-1,.38-2,.74-3,1.1-.35.13-.7.26-1,.37l-.48.17-1.53.52-.11,0-2.42.81-.53.17-2,.65-.79.25-1.83.56-2.43.73-.79.23-1.44.41-.41.12-2.12.59h0l-2.09.56L320,504c-.89.23-1.78.46-2.68.67l-2.84.68-2,.46c-1,.23-2,.45-3.05.66l-.3.06-.69.14-20-73.82a180.84,180.84,0,0,1-32.4,2.92v-30A149.37,149.37,0,0,0,362,362q5.28-5.28,9.91-10.93Z" transform="translate(0 0)"/><path class="cls-5" d="M504.82,195.39q-.3-1.26-.63-2.52c-.3-1.2-.61-2.4-.93-3.59q.6,2.19,1.14,4.38Z" transform="translate(0 0)"/><path class="cls-5" d="M503.07,323.43c.26-.95.51-1.9.76-2.86-.08.33-.17.67-.26,1C503.41,322.2,503.24,322.81,503.07,323.43Z" transform="translate(0 0)"/><path class="cls-5" d="M504.4,193.66l.42,1.73q-.3-1.26-.63-2.52c-.3-1.2-.61-2.4-.93-3.59Q503.86,191.47,504.4,193.66Z" transform="translate(0 0)"/><path class="cls-5" d="M505.09,196.49l.09.41-.36-1.51Z" transform="translate(0 0)"/><path class="cls-5" d="M506.38,202.29c-.16-.76-.32-1.52-.49-2.28l.18.8c.06.26.11.52.17.78S506.34,202.06,506.38,202.29Z" transform="translate(0 0)"/><path class="cls-5" d="M505.87,312.1c.21-.94.41-1.89.61-2.83l-.21,1C506.14,310.89,506,311.49,505.87,312.1Z" transform="translate(0 0)"/><path class="cls-5" d="M506.73,203.9a1,1,0,0,1,0,.16,2.84,2.84,0,0,0-.06-.31A1.13,1.13,0,0,0,506.73,203.9Z" transform="translate(0 0)"/><path class="cls-5" d="M510.51,283.78c.12-1.08.23-2.17.33-3.26-.07.79-.14,1.58-.23,2.39C510.58,283.2,510.55,283.49,510.51,283.78Z" transform="translate(0 0)"/><path class="cls-5" d="M511.13,277.24c0-.47.07-.93.11-1.4,0,.42-.06.84-.09,1.27,0,.59-.1,1.18-.16,1.77C511,278.34,511.08,277.79,511.13,277.24Z" transform="translate(0 0)"/><path class="cls-5" d="M511.27,236.4l0,.44c-.08-1-.16-2-.25-3.06C511.13,234.65,511.21,235.53,511.27,236.4Z" transform="translate(0 0)"/><path class="cls-5" d="M511.71,243.75c0-.64-.06-1.29-.1-1.93,0,.18,0,.37,0,.55Z" transform="translate(0 0)"/></svg>